<mxfile host="app.diagrams.net" modified="2023-09-28T18:32:20.074Z" agent="Mozilla/5.0 (Windows NT 10.0; Win64; x64; rv:80.0) Gecko/20100101 Firefox/80.0" etag="Ds7WSGU90xhxoHYtbnZN" version="22.0.0" type="device">
  <diagram name="Página-1" id="lInwFm9HwbqUy6V4VNYQ">
    <mxGraphModel dx="794" dy="737" grid="1" gridSize="10" guides="1" tooltips="1" connect="1" arrows="1" fold="1" page="1" pageScale="1" pageWidth="827" pageHeight="1169" math="0" shadow="0">
      <root>
        <mxCell id="0" />
        <mxCell id="1" parent="0" />
        <mxCell id="cGGPboGzEbDsLAVjURmT-11" style="edgeStyle=orthogonalEdgeStyle;rounded=0;orthogonalLoop=1;jettySize=auto;html=1;exitX=0.5;exitY=0;exitDx=0;exitDy=0;entryX=0.5;entryY=1;entryDx=0;entryDy=0;" edge="1" parent="1" source="cGGPboGzEbDsLAVjURmT-1" target="cGGPboGzEbDsLAVjURmT-7">
          <mxGeometry relative="1" as="geometry" />
        </mxCell>
        <mxCell id="cGGPboGzEbDsLAVjURmT-40" value="" style="edgeStyle=orthogonalEdgeStyle;rounded=0;orthogonalLoop=1;jettySize=auto;html=1;" edge="1" parent="1" source="cGGPboGzEbDsLAVjURmT-1" target="cGGPboGzEbDsLAVjURmT-39">
          <mxGeometry relative="1" as="geometry" />
        </mxCell>
        <mxCell id="cGGPboGzEbDsLAVjURmT-1" value="PERSONA" style="whiteSpace=wrap;html=1;align=center;" vertex="1" parent="1">
          <mxGeometry x="390" y="620" width="100" height="40" as="geometry" />
        </mxCell>
        <mxCell id="cGGPboGzEbDsLAVjURmT-2" value="VIVIENDA" style="whiteSpace=wrap;html=1;align=center;" vertex="1" parent="1">
          <mxGeometry x="390" y="340" width="100" height="40" as="geometry" />
        </mxCell>
        <mxCell id="cGGPboGzEbDsLAVjURmT-5" value="" style="edgeStyle=orthogonalEdgeStyle;rounded=0;orthogonalLoop=1;jettySize=auto;html=1;" edge="1" parent="1" source="cGGPboGzEbDsLAVjURmT-3" target="cGGPboGzEbDsLAVjURmT-4">
          <mxGeometry relative="1" as="geometry" />
        </mxCell>
        <mxCell id="cGGPboGzEbDsLAVjURmT-3" value="MUNICIPIO" style="whiteSpace=wrap;html=1;align=center;" vertex="1" parent="1">
          <mxGeometry x="390" y="80" width="100" height="40" as="geometry" />
        </mxCell>
        <mxCell id="cGGPboGzEbDsLAVjURmT-6" value="" style="edgeStyle=orthogonalEdgeStyle;rounded=0;orthogonalLoop=1;jettySize=auto;html=1;" edge="1" parent="1" source="cGGPboGzEbDsLAVjURmT-4" target="cGGPboGzEbDsLAVjURmT-2">
          <mxGeometry relative="1" as="geometry" />
        </mxCell>
        <mxCell id="cGGPboGzEbDsLAVjURmT-4" value="hay" style="rhombus;whiteSpace=wrap;html=1;" vertex="1" parent="1">
          <mxGeometry x="400" y="190" width="80" height="80" as="geometry" />
        </mxCell>
        <mxCell id="cGGPboGzEbDsLAVjURmT-12" style="edgeStyle=orthogonalEdgeStyle;rounded=0;orthogonalLoop=1;jettySize=auto;html=1;exitX=0.5;exitY=0;exitDx=0;exitDy=0;entryX=0.5;entryY=1;entryDx=0;entryDy=0;" edge="1" parent="1" source="cGGPboGzEbDsLAVjURmT-7" target="cGGPboGzEbDsLAVjURmT-2">
          <mxGeometry relative="1" as="geometry" />
        </mxCell>
        <mxCell id="cGGPboGzEbDsLAVjURmT-7" value="tiene" style="rhombus;whiteSpace=wrap;html=1;" vertex="1" parent="1">
          <mxGeometry x="400" y="450" width="80" height="80" as="geometry" />
        </mxCell>
        <mxCell id="cGGPboGzEbDsLAVjURmT-13" value="(1,n)" style="text;html=1;strokeColor=none;fillColor=none;align=center;verticalAlign=middle;whiteSpace=wrap;rounded=0;" vertex="1" parent="1">
          <mxGeometry x="450" y="400" width="60" height="30" as="geometry" />
        </mxCell>
        <mxCell id="cGGPboGzEbDsLAVjURmT-15" value="(1,1)" style="text;html=1;strokeColor=none;fillColor=none;align=center;verticalAlign=middle;whiteSpace=wrap;rounded=0;" vertex="1" parent="1">
          <mxGeometry x="450" y="580" width="60" height="30" as="geometry" />
        </mxCell>
        <mxCell id="cGGPboGzEbDsLAVjURmT-16" value="(1:N)" style="text;html=1;strokeColor=none;fillColor=none;align=center;verticalAlign=middle;whiteSpace=wrap;rounded=0;" vertex="1" parent="1">
          <mxGeometry x="340" y="475" width="60" height="30" as="geometry" />
        </mxCell>
        <mxCell id="cGGPboGzEbDsLAVjURmT-17" value="(1,n)" style="text;html=1;strokeColor=none;fillColor=none;align=center;verticalAlign=middle;whiteSpace=wrap;rounded=0;" vertex="1" parent="1">
          <mxGeometry x="440" y="290" width="60" height="30" as="geometry" />
        </mxCell>
        <mxCell id="cGGPboGzEbDsLAVjURmT-18" value="(1,1)" style="text;html=1;strokeColor=none;fillColor=none;align=center;verticalAlign=middle;whiteSpace=wrap;rounded=0;" vertex="1" parent="1">
          <mxGeometry x="440" y="140" width="60" height="30" as="geometry" />
        </mxCell>
        <mxCell id="cGGPboGzEbDsLAVjURmT-19" value="(1:N)" style="text;html=1;strokeColor=none;fillColor=none;align=center;verticalAlign=middle;whiteSpace=wrap;rounded=0;" vertex="1" parent="1">
          <mxGeometry x="340" y="215" width="60" height="30" as="geometry" />
        </mxCell>
        <mxCell id="cGGPboGzEbDsLAVjURmT-20" value="Metros cuadrados" style="ellipse;whiteSpace=wrap;html=1;align=center;" vertex="1" parent="1">
          <mxGeometry x="520" y="340" width="100" height="40" as="geometry" />
        </mxCell>
        <mxCell id="cGGPboGzEbDsLAVjURmT-21" value="Dirección" style="ellipse;shape=doubleEllipse;margin=3;whiteSpace=wrap;html=1;align=center;fontStyle=4" vertex="1" parent="1">
          <mxGeometry x="260" y="340" width="100" height="40" as="geometry" />
        </mxCell>
        <mxCell id="cGGPboGzEbDsLAVjURmT-22" value="Cód_municipio" style="ellipse;whiteSpace=wrap;html=1;align=center;fontStyle=4;" vertex="1" parent="1">
          <mxGeometry x="390" y="20" width="100" height="40" as="geometry" />
        </mxCell>
        <mxCell id="cGGPboGzEbDsLAVjURmT-24" value="Núm_habitantes" style="ellipse;whiteSpace=wrap;html=1;align=center;" vertex="1" parent="1">
          <mxGeometry x="520" y="80" width="100" height="40" as="geometry" />
        </mxCell>
        <mxCell id="cGGPboGzEbDsLAVjURmT-25" value="Nombre" style="ellipse;shape=doubleEllipse;margin=3;whiteSpace=wrap;html=1;align=center;fontStyle=0" vertex="1" parent="1">
          <mxGeometry x="260" y="80" width="100" height="40" as="geometry" />
        </mxCell>
        <mxCell id="cGGPboGzEbDsLAVjURmT-26" value="" style="endArrow=none;html=1;rounded=0;exitX=1;exitY=0.5;exitDx=0;exitDy=0;entryX=0;entryY=0.5;entryDx=0;entryDy=0;" edge="1" parent="1" source="cGGPboGzEbDsLAVjURmT-21" target="cGGPboGzEbDsLAVjURmT-2">
          <mxGeometry width="50" height="50" relative="1" as="geometry">
            <mxPoint x="360" y="310" as="sourcePoint" />
            <mxPoint x="410" y="260" as="targetPoint" />
          </mxGeometry>
        </mxCell>
        <mxCell id="cGGPboGzEbDsLAVjURmT-27" value="" style="endArrow=none;html=1;rounded=0;exitX=1;exitY=0.5;exitDx=0;exitDy=0;entryX=0;entryY=0.5;entryDx=0;entryDy=0;" edge="1" parent="1" source="cGGPboGzEbDsLAVjURmT-2" target="cGGPboGzEbDsLAVjURmT-20">
          <mxGeometry width="50" height="50" relative="1" as="geometry">
            <mxPoint x="370" y="370" as="sourcePoint" />
            <mxPoint x="400" y="370" as="targetPoint" />
          </mxGeometry>
        </mxCell>
        <mxCell id="cGGPboGzEbDsLAVjURmT-28" value="" style="endArrow=none;html=1;rounded=0;exitX=1;exitY=0.5;exitDx=0;exitDy=0;entryX=0;entryY=0.5;entryDx=0;entryDy=0;" edge="1" parent="1" source="cGGPboGzEbDsLAVjURmT-25" target="cGGPboGzEbDsLAVjURmT-3">
          <mxGeometry width="50" height="50" relative="1" as="geometry">
            <mxPoint x="380" y="380" as="sourcePoint" />
            <mxPoint x="410" y="380" as="targetPoint" />
          </mxGeometry>
        </mxCell>
        <mxCell id="cGGPboGzEbDsLAVjURmT-29" value="" style="endArrow=none;html=1;rounded=0;exitX=1;exitY=0.5;exitDx=0;exitDy=0;entryX=0;entryY=0.5;entryDx=0;entryDy=0;" edge="1" parent="1" source="cGGPboGzEbDsLAVjURmT-3" target="cGGPboGzEbDsLAVjURmT-24">
          <mxGeometry width="50" height="50" relative="1" as="geometry">
            <mxPoint x="390" y="390" as="sourcePoint" />
            <mxPoint x="420" y="390" as="targetPoint" />
          </mxGeometry>
        </mxCell>
        <mxCell id="cGGPboGzEbDsLAVjURmT-30" value="" style="endArrow=none;html=1;rounded=0;entryX=0.5;entryY=1;entryDx=0;entryDy=0;" edge="1" parent="1" target="cGGPboGzEbDsLAVjURmT-22">
          <mxGeometry width="50" height="50" relative="1" as="geometry">
            <mxPoint x="440" y="80" as="sourcePoint" />
            <mxPoint x="430" y="400" as="targetPoint" />
          </mxGeometry>
        </mxCell>
        <mxCell id="cGGPboGzEbDsLAVjURmT-31" value="Nombre" style="ellipse;shape=doubleEllipse;margin=3;whiteSpace=wrap;html=1;align=center;" vertex="1" parent="1">
          <mxGeometry x="270" y="585" width="100" height="40" as="geometry" />
        </mxCell>
        <mxCell id="cGGPboGzEbDsLAVjURmT-32" value="DNI" style="ellipse;whiteSpace=wrap;html=1;align=center;fontStyle=4;" vertex="1" parent="1">
          <mxGeometry x="270" y="650" width="100" height="40" as="geometry" />
        </mxCell>
        <mxCell id="cGGPboGzEbDsLAVjURmT-33" value="Dir_principal" style="ellipse;shape=doubleEllipse;margin=3;whiteSpace=wrap;html=1;align=center;" vertex="1" parent="1">
          <mxGeometry x="520" y="650" width="100" height="40" as="geometry" />
        </mxCell>
        <mxCell id="cGGPboGzEbDsLAVjURmT-34" value="Núm_viviendas" style="ellipse;whiteSpace=wrap;html=1;align=center;" vertex="1" parent="1">
          <mxGeometry x="520" y="585" width="100" height="40" as="geometry" />
        </mxCell>
        <mxCell id="cGGPboGzEbDsLAVjURmT-35" value="" style="endArrow=none;html=1;rounded=0;exitX=1;exitY=0.5;exitDx=0;exitDy=0;entryX=0;entryY=0.5;entryDx=0;entryDy=0;" edge="1" parent="1" source="cGGPboGzEbDsLAVjURmT-1" target="cGGPboGzEbDsLAVjURmT-33">
          <mxGeometry width="50" height="50" relative="1" as="geometry">
            <mxPoint x="410" y="410" as="sourcePoint" />
            <mxPoint x="440" y="410" as="targetPoint" />
          </mxGeometry>
        </mxCell>
        <mxCell id="cGGPboGzEbDsLAVjURmT-36" value="" style="endArrow=none;html=1;rounded=0;exitX=0;exitY=0.5;exitDx=0;exitDy=0;entryX=1;entryY=0.5;entryDx=0;entryDy=0;" edge="1" parent="1" source="cGGPboGzEbDsLAVjURmT-34" target="cGGPboGzEbDsLAVjURmT-1">
          <mxGeometry width="50" height="50" relative="1" as="geometry">
            <mxPoint x="420" y="420" as="sourcePoint" />
            <mxPoint x="450" y="420" as="targetPoint" />
          </mxGeometry>
        </mxCell>
        <mxCell id="cGGPboGzEbDsLAVjURmT-37" value="" style="endArrow=none;html=1;rounded=0;exitX=0;exitY=0.5;exitDx=0;exitDy=0;entryX=1;entryY=0.5;entryDx=0;entryDy=0;" edge="1" parent="1" source="cGGPboGzEbDsLAVjURmT-1" target="cGGPboGzEbDsLAVjURmT-32">
          <mxGeometry width="50" height="50" relative="1" as="geometry">
            <mxPoint x="430" y="430" as="sourcePoint" />
            <mxPoint x="460" y="430" as="targetPoint" />
          </mxGeometry>
        </mxCell>
        <mxCell id="cGGPboGzEbDsLAVjURmT-38" value="" style="endArrow=none;html=1;rounded=0;exitX=1;exitY=0.5;exitDx=0;exitDy=0;entryX=0;entryY=0.5;entryDx=0;entryDy=0;" edge="1" parent="1" source="cGGPboGzEbDsLAVjURmT-31" target="cGGPboGzEbDsLAVjURmT-1">
          <mxGeometry width="50" height="50" relative="1" as="geometry">
            <mxPoint x="440" y="440" as="sourcePoint" />
            <mxPoint x="470" y="440" as="targetPoint" />
          </mxGeometry>
        </mxCell>
        <mxCell id="cGGPboGzEbDsLAVjURmT-39" value="hijo/a de" style="rhombus;whiteSpace=wrap;html=1;" vertex="1" parent="1">
          <mxGeometry x="310" y="730" width="80" height="80" as="geometry" />
        </mxCell>
        <mxCell id="cGGPboGzEbDsLAVjURmT-41" style="edgeStyle=orthogonalEdgeStyle;rounded=0;orthogonalLoop=1;jettySize=auto;html=1;exitX=0.5;exitY=1;exitDx=0;exitDy=0;entryX=0.94;entryY=0.975;entryDx=0;entryDy=0;entryPerimeter=0;" edge="1" parent="1" source="cGGPboGzEbDsLAVjURmT-39" target="cGGPboGzEbDsLAVjURmT-1">
          <mxGeometry relative="1" as="geometry" />
        </mxCell>
        <mxCell id="cGGPboGzEbDsLAVjURmT-42" value="(1,2)" style="text;html=1;strokeColor=none;fillColor=none;align=center;verticalAlign=middle;whiteSpace=wrap;rounded=0;" vertex="1" parent="1">
          <mxGeometry x="380" y="670" width="60" height="30" as="geometry" />
        </mxCell>
        <mxCell id="cGGPboGzEbDsLAVjURmT-43" value="(1,2)" style="text;html=1;strokeColor=none;fillColor=none;align=center;verticalAlign=middle;whiteSpace=wrap;rounded=0;" vertex="1" parent="1">
          <mxGeometry x="380" y="830" width="60" height="30" as="geometry" />
        </mxCell>
        <mxCell id="cGGPboGzEbDsLAVjURmT-44" value="(2:2)" style="text;html=1;strokeColor=none;fillColor=none;align=center;verticalAlign=middle;whiteSpace=wrap;rounded=0;" vertex="1" parent="1">
          <mxGeometry x="250" y="755" width="60" height="30" as="geometry" />
        </mxCell>
      </root>
    </mxGraphModel>
  </diagram>
</mxfile>
